<?xml version="1.0" encoding="utf-8"?>
<!-- Svg Vector Icons : http://www.onlinewebfonts.com/icon -->
<!DOCTYPE svg PUBLIC "-//W3C//DTD SVG 1.1//EN" "http://www.w3.org/Graphics/SVG/1.1/DTD/svg11.dtd">
<svg version="1.1" xmlns="http://www.w3.org/2000/svg" xmlns:xlink="http://www.w3.org/1999/xlink" x="0px" y="0px" width="20" height="20" viewBox="0 0 1000 1000" enable-background="new 0 0 1000 1000" xml:space="preserve">
<metadata> Svg Vector Icons : http://www.onlinewebfonts.com/icon </metadata>
<g><path d="M377.5,530.6H163.1v61.3h214.4V530.6L377.5,530.6z M163.1,745h214.4v-61.2H163.1V745L163.1,745z M745,500c-135.1,0-245,109.9-245,245s109.9,245,245,245c135.1,0,245-109.9,245-245C990,609.9,880.1,500,745,500L745,500z M745,928.7c-101.3,0-183.8-82.4-183.8-183.7c0-101.3,82.4-183.8,183.8-183.8c101.3,0,183.7,82.4,183.7,183.8S846.3,928.7,745,928.7L745,928.7z M101.9,836.9c-8.2,0-15.8-3.2-21.7-9c-5.8-5.8-9-13.5-9-21.7V438.8h708.6c19.9,2.8,39,8,57,15.3v-15.3v-61.3V224.4c0-24.6-9.6-47.6-26.9-65c-17.4-17.4-40.4-26.9-65-26.9h-61.2V10h-61.3v122.5H255V10h-61.2v122.5h-91.9c-24.5,0-47.6,9.6-65,26.9c-17.3,17.3-26.9,40.4-26.9,65v581.9c0,24.5,9.6,47.6,26.9,65c17.3,17.4,40.4,26.9,65,26.9h388.2c-14.8-18.4-27-39-36-61.3H101.9L101.9,836.9z M71.3,285.6v-41.1v-20.1c0-8.2,3.2-15.9,9-21.6c5.8-5.8,13.5-9,21.7-9h91.9v91.9H255v-91.9h367.5v91.9h61.3v-91.9H745c8.2,0,15.9,3.2,21.7,9c5.8,5.8,9,13.5,9,21.6v21.1v41.1v90.9H71.3V285.6L71.3,285.6z M775.6,622.5h-61.3v91.9V745v30.6h153.1v-61.2h-91.9V622.5L775.6,622.5z"/></g>
</svg>