<?xml version="1.0" encoding="utf-8"?>

<svg version="1.1" id="Icons" xmlns="http://www.w3.org/2000/svg" xmlns:xlink="http://www.w3.org/1999/xlink" x="0px" y="0px" width="20" height="20"
	 viewBox="0 0 32 32" style="enable-background:new 0 0 32 32;" xml:space="preserve">
<style type="text/css">
	.st0{fill:none;stroke:#000000;stroke-width:2;stroke-linecap:round;stroke-linejoin:round;stroke-miterlimit:10;}
</style>
<line class="st0" x1="17" y1="22" x2="1" y2="22"/>
<line class="st0" x1="1" y1="10" x2="31" y2="10"/>
<line class="st0" x1="6" y1="27" x2="6" y2="22"/>
<line class="st0" x1="11" y1="27" x2="11" y2="22"/>
<line class="st0" x1="6" y1="10" x2="6" y2="5"/>
<line class="st0" x1="11" y1="10" x2="11" y2="5"/>
<line class="st0" x1="16" y1="10" x2="16" y2="5"/>
<line class="st0" x1="21" y1="10" x2="21" y2="5"/>
<line class="st0" x1="26" y1="10" x2="26" y2="5"/>
<circle class="st0" cx="24" cy="24" r="7"/>
<line class="st0" x1="24" y1="21" x2="24" y2="27"/>
<line class="st0" x1="21" y1="24" x2="27" y2="24"/>
<polyline class="st0" points="17.7,27 1,27 1,5 31,5 31,24 "/>
</svg>
