<?xml version="1.0" encoding="iso-8859-1"?>
<!-- Generator: Adobe Illustrator 16.0.0, SVG Export Plug-In . SVG Version: 6.00 Build 0)  -->
<!DOCTYPE svg PUBLIC "-//W3C//DTD SVG 1.1//EN" "http://www.w3.org/Graphics/SVG/1.1/DTD/svg11.dtd">
<svg version="1.1" id="Capa_1" xmlns="http://www.w3.org/2000/svg" xmlns:xlink="http://www.w3.org/1999/xlink" x="0px" y="0px"
	 width="20" height="20" viewBox="0 0 496.887 496.887" style="enable-background:new 0 0 496.887 496.887;"
	 xml:space="preserve">
<g>
	<g>
		<path d="M248.443,73.85c-52.294,0-94.839,42.544-94.839,94.839c0,52.294,42.544,94.838,94.839,94.838
			c52.295,0,94.838-42.544,94.838-94.838C343.281,116.394,300.736,73.85,248.443,73.85z M297.195,179.433l-58.214,42.28
			c-2.311,1.678-5.051,2.535-7.804,2.535c-2.059,0-4.125-0.478-6.028-1.447c-4.449-2.267-7.25-6.84-7.25-11.832v-84.561
			c0-4.993,2.801-9.564,7.25-11.831c4.447-2.269,9.792-1.848,13.832,1.087l58.214,42.281c3.439,2.498,5.476,6.492,5.476,10.743
			S300.635,176.935,297.195,179.433z"/>
		<path d="M75.214,271.822c3.234-2.771,6.842-5.266,10.725-7.416l2.55-1.412V31.379H408.4v231.615l2.549,1.412
			c3.877,2.148,7.486,4.645,10.725,7.416c5.23,4.48,9.582,9.722,12.928,15.574l9.242,16.164V21.225
			C443.844,9.522,434.32,0,422.617,0H74.27C62.566,0,53.045,9.521,53.045,21.225v282.335l9.242-16.166
			C65.633,281.541,69.982,276.301,75.214,271.822z"/>
		<path d="M252.173,332.635c15.976,0,30.633,4.906,42.047,13.045v-34.287c0-20.16-19.085-36.504-42.627-36.504h-4.26
			c-23.541,0-42.624,16.344-42.624,36.504v34.568c11.464-8.305,26.268-13.326,42.421-13.326H252.173L252.173,332.635z"/>
		<path d="M124.022,274.889h-4.259c-23.542,0-42.626,16.344-42.626,36.504v23.615c5.979-1.536,12.307-2.373,18.858-2.373h5.046
			c31.042,0,57.118,18.52,64.01,43.333c1.031-3.146,1.595-6.46,1.595-9.892v-54.684
			C166.647,291.232,147.564,274.889,124.022,274.889z"/>
		<path d="M400.891,332.635c6.555,0,12.881,0.837,18.857,2.373v-23.615c0-20.16-19.082-36.504-42.623-36.504h-4.26
			c-23.541,0-42.627,16.344-42.627,36.504v54.686c0,3.431,0.566,6.744,1.596,9.891c6.893-24.814,32.969-43.333,64.012-43.333
			L400.891,332.635L400.891,332.635z"/>
		<path d="M252.173,353.215h-5.043c-27.89,0-50.499,18.391-50.499,41.074v61.525c0,22.682,22.609,41.072,50.499,41.072h5.043
			c27.892,0,50.5-18.391,50.5-41.072v-61.525C302.673,371.605,280.064,353.215,252.173,353.215z"/>
		<path d="M101.041,353.215h-5.046c-27.889,0-50.497,18.391-50.497,41.074v61.525c0,22.682,22.608,41.072,50.497,41.072h5.046
			c27.89,0,50.498-18.391,50.498-41.072v-61.525C151.539,371.605,128.931,353.215,101.041,353.215z"/>
		<path d="M400.891,353.215h-5.043c-27.893,0-50.5,18.391-50.5,41.074v61.525c0,22.682,22.607,41.072,50.5,41.072h5.043
			c27.889,0,50.498-18.391,50.498-41.072v-61.525C451.389,371.605,428.779,353.215,400.891,353.215z"/>
	</g>
</g>
<g>
</g>
<g>
</g>
<g>
</g>
<g>
</g>
<g>
</g>
<g>
</g>
<g>
</g>
<g>
</g>
<g>
</g>
<g>
</g>
<g>
</g>
<g>
</g>
<g>
</g>
<g>
</g>
<g>
</g>
</svg>
